<?xml version="1.0" encoding="UTF-8"?>
<svg width="15px" height="12px" viewBox="0 0 15 12" version="1.1" xmlns="http://www.w3.org/2000/svg" xmlns:xlink="http://www.w3.org/1999/xlink">
    <!-- Generator: Sketch 47.1 (45422) - http://www.bohemiancoding.com/sketch -->
    <title>Rectangle 2</title>
    <desc>Created with Sketch.</desc>
    <defs></defs>
    <g id="Resources" stroke="none" stroke-width="1" fill="none" fill-rule="evenodd">
        <g id="Icons/-Arrow-Left" transform="translate(-1.000000, -2.000000)" fill="#326DEC">
            <path d="M12.4079659,7.0628395 L1.5,7.0628395 C1.22385763,7.0628395 1,7.28669712 1,7.5628395 L1,8.5628395 C1,8.83898187 1.22385763,9.0628395 1.5,9.0628395 L12.4079659,9.0628395 L9.74451655,12.0222277 C9.55978704,12.2274827 9.57642624,12.5436276 9.78168125,12.7283571 L10.5249754,13.3973219 C10.7302304,13.5820514 11.0463753,13.5654122 11.2311048,13.3601572 L15.6976566,8.39732186 C15.8687938,8.20716938 15.8687938,7.91850962 15.6976566,7.72835713 L11.2311048,2.76552184 C11.0463753,2.56026683 10.7302304,2.54362762 10.5249754,2.72835713 L9.78168125,3.39732186 C9.57642624,3.58205137 9.55978704,3.89819629 9.74451655,4.1034513 L12.4079659,7.0628395 Z" id="Rectangle-2"></path>
        </g>
    </g>
</svg>